# xmcd
#
# Track frame offsets: 
#        150
#        17787
#        39025
#        56443
#        66130
#        80506
#        93835
#        112196
#        127736
#        144780
#        163072
#        180431
#        192892
#        225604
#        238883
#
# Disc length: 3392 seconds
#
# Revision: 0
# Processed by: cddbd v1.5.2PL0 Copyright (c) Steve Scherf et al.
# Submitted via: ExactAudioCopy v0.99pb5
#
DISCID=b70d3e0f
DTITLE=Smooth Club Deluxe - Christmas Lounge
DYEAR=2009
DGENRE=Christmas
TTITLE0=Driving Home For Christmas
TTITLE1=Last Christmas
TTITLE2=Feliz Navidad
TTITLE3=Mary's Boy Child
TTITLE4=Twinklin' Snow
TTITLE5=Have Yourself A Merry Little Christmas
TTITLE6=Let It Snow! Let It Snow! Let It Snow!
TTITLE7=Golden Star Of Bethlehem
TTITLE8=Jingle Bells
TTITLE9=The Little Drummer Boy
TTITLE10=Silent Christmas
TTITLE11=Sleigh Ride
TTITLE12=The First Noel
TTITLE13=Winter Wonderland
TTITLE14=Silent Christmas [Brass Version]
EXTD=
EXTT0=
EXTT1=
EXTT2=
EXTT3=
EXTT4=
EXTT5=
EXTT6=
EXTT7=
EXTT8=
EXTT9=
EXTT10=
EXTT11=
EXTT12=
EXTT13=
EXTT14=
PLAYORDER=
